{"title":"All Hallows Eve 2013 WEBRip 480p x264 AAC - VYTO [P2PDL]","uid":9120981,"size":306255519,"categoryP":"video","categoryS":"movies","magnet":"?xt=urn:btih:0196e422b22ebf82879f9a65393cdb49cfa43086&amp;dn=All+Hallows+Eve+2013+WEBRip+480p+x264+AAC+-+VYTO+%5BP2PDL%5D&amp;tr=udp%3A%2F%2Ftracker.openbittorrent.com%3A80&amp;tr=udp%3A%2F%2Fopen.demonii.com%3A1337&amp;tr=udp%3A%2F%2Ftracker.coppersurfer.tk%3A6969&amp;tr=udp%3A%2F%2Fexodus.desync.com%3A6969","seeders":1,"leechers":0,"uploader":"Vitamin_X","files":-1,"time":1383091624,"description":"_______ Visit us at our Semi Public Bittorrent Community ________\n  &lt;a href=&quot;\nhttp://p2pdl.com&quot; rel=&quot;nofollow&quot; target=&quot;_NEW&quot;&gt;\nhttp://p2pdl.com&lt;/a&gt;  _____________________________ &lt;a href=&quot; http://p2pdl.com&quot; rel=&quot;nofollow&quot; target=&quot;_NEW&quot;&gt; http://p2pdl.com&lt;/a&gt;\n\n\nAll Hallows Eve 2013 WEBRip 480p x264 AAC - VYTO\n\n\nGenre: Horror\nPlot: While watching two children on Halloween night, a \nbabysitter finds an old VHS tape in the kids' trick or \ntreat bag. The tape features three tales of terror, all \nlinked together by a murderous clown. As the night goes \non strange things begin to occur in the house. It isn't \nlong before the babysitter learns the horrifying truth... \nthe maniacal clown is slowly working his way into her \nreality..\nDirector: Damien Leone\nStars: Katie Maguire, Mike Giannelli, Catherine A. Callahan\nRated: N/A\n\nIMDb: &lt;a href=&quot;\nhttp://www.imdb.com/title/tt2900624/&quot; rel=&quot;nofollow&quot; target=&quot;_NEW&quot;&gt;\nhttp://www.imdb.com/title/tt2900624/&lt;/a&gt;\n\n\nGeneral\nFormat                         : MPEG-4\nFile size                      : 286 MiB\nDuration                       : 1h 22mn\nOverall bit rate mode          : Variable\nOverall bit rate               : 481 Kbps\n\nVideo\nFormat                         : AVC\nBit rate                       : 439 Kbps\nWidth                          : 720 pixels\nHeight                         : 304 pixels\nDisplay aspect ratio           : 2.35:1\nFrame rate mode                : Constant\nFrame rate                     : 23.976 fps\nBit depth                      : 10 bits\nStream size                    : 260 MiB (91%)\nWriting library                : x264 core 138 r2358 9e941d1\n\nAudio\nFormat                         : AAC\nBit rate                       : 40.0 Kbps\nChannel(s)                     : 2 channels\nChannel positions              : Front: L R\nSampling rate                  : 48.0 KHz / 24.0 KHz\nStream size                    : 23.7 MiB (8%)\nLanguage                       : English\n\nSubtitle                       : Yes (English)\n\nSource                         : 720p.WEB-DL.H264-PublicHD\n\nScreenshots:\n &lt;a href=&quot;\nhttp://ultraimg.com/images/OZGoQ.png&quot; rel=&quot;nofollow&quot; target=&quot;_NEW&quot;&gt;\nhttp://ultraimg.com/images/OZGoQ.png&lt;/a&gt; &lt;a href=&quot;\nhttp://ultraimg.com/images/1kU34.png&quot; rel=&quot;nofollow&quot; target=&quot;_NEW&quot;&gt;\nhttp://ultraimg.com/images/1kU34.png&lt;/a&gt; &lt;a href=&quot;\nhttp://ultraimg.com/images/O2c4J.png&quot; rel=&quot;nofollow&quot; target=&quot;_NEW&quot;&gt;\nhttp://ultraimg.com/images/O2c4J.png&lt;/a&gt; &lt;a href=&quot;\nhttp://ultraimg.com/images/gR0f9.png&quot; rel=&quot;nofollow&quot; target=&quot;_NEW&quot;&gt;\nhttp://ultraimg.com/images/gR0f9.png&lt;/a&gt; &lt;a href=&quot;\nhttp://ultraimg.com/images/gkCuY.png&quot; rel=&quot;nofollow&quot; target=&quot;_NEW&quot;&gt;\nhttp://ultraimg.com/images/gkCuY.png&lt;/a&gt;\n\n----------------------------------------------------------------------------------------------------\n\n\nEncoded using revolutionary 10bit encoding, which enables us to provide you more crispier \nand sharper images at small sizes, just make sure you follow our instructions without a fault.\nRecommend to you to use latest version of VLC player. Install K-Lite Codec Pack or shark007 codecs\nin case of any kind of problem in playback (For non-VLC Media Player users). Alternatively, install\nCore AVC codecs, the fastest decoder that there is coupled with Community Center Codec Pack and play\non Windows Media Player Classic. Check sample to be sure.\nEnjoy!\n\nEncoder Notes:Looking For Early Access To Anything You Can Provide DVDScr, R5, DVDR, BluRay, Direct\nAudio, Music Releases and Seedboxes. We require dedicated servers, so as to do more \nand fast releases of movies.\nIf You Got anything to offer please contact us at &quot;&lt;a class=&quot;__cf_email__&quot; href=&quot;/cdn-cgi/l/email-protection&quot; data-cfemail=&quot;35454752755d40465d1b565a58&quot;&gt;[email&amp;#160;protected]&lt;/a&gt;&lt;script cf-hash='f9e31' type=&quot;text/javascript&quot;&gt;\n/* &lt;![CDATA[ */!function(){try{var t=&quot;currentScript&quot;in document?document.currentScript:function(){for(var t=document.getElementsByTagName(&quot;script&quot;),e=t.length;e--;)if(t[e].getAttribute(&quot;cf-hash&quot;))return t[e]}();if(t&amp;&amp;t.previousSibling){var e,r,n,i,c=t.previousSibling,a=c.getAttribute(&quot;data-cfemail&quot;);if(a){for(e=&quot;&quot;,r=parseInt(a.substr(0,2),16),n=2;a.length-n;n+=2)i=parseInt(a.substr(n,2),16)^r,e+=String.fromCharCode(i);e=document.createTextNode(e),c.parentNode.replaceChild(e,c)}}}catch(u){}}();/* ]]&gt; */&lt;/script&gt;&quot;.\n\nSupport us, please consider a donation.\n\n\nFacebook Fan Page:  \nSearch P2PDL on FB and don't forget to hit like!!!\n\nFor more of our team uploads visit @            &lt;a href=&quot;\nhttp://thepiratebay.se/user/varuttee&quot; rel=&quot;nofollow&quot; target=&quot;_NEW&quot;&gt;\nhttp://thepiratebay.se/user/varuttee&lt;/a&gt;\t","torrent":{"xt":"urn:btih:0196e422b22ebf82879f9a65393cdb49cfa43086","amp;dn":"All+Hallows+Eve+2013+WEBRip+480p+x264+AAC+-+VYTO+%5BP2PDL%5D","amp;tr":["udp%3A%2F%2Ftracker.openbittorrent.com%3A80","udp%3A%2F%2Fopen.demonii.com%3A1337","udp%3A%2F%2Ftracker.coppersurfer.tk%3A6969","udp%3A%2F%2Fexodus.desync.com%3A6969"],"infoHash":"0196e422b22ebf82879f9a65393cdb49cfa43086","infoHashBuffer":{"type":"Buffer","data":[1,150,228,34,178,46,191,130,135,159,154,101,57,60,219,73,207,164,48,134]},"announce":[],"urlList":[]}}